<svg width="56" height="56" viewBox="0 0 56 56" fill="none" xmlns="http://www.w3.org/2000/svg">
<rect width="56" height="56" rx="14" fill="white"/>
<path d="M28.1049 47C19.2262 47 12 39.7776 12 30.9037V11.9014C12 10.299 13.2996 9 14.903 9C16.5063 9 17.806 10.299 17.806 11.9014V30.9037C17.806 36.5771 22.424 41.1971 28.1049 41.1971C33.7858 41.1971 38.4038 36.5816 38.4038 30.9037C38.4038 25.2972 33.893 20.7218 28.3059 20.6147L28.3014 20.9718C28.2746 22.5743 26.9482 23.8643 25.3538 23.8242C23.7504 23.7974 22.4731 22.4806 22.4999 20.8781L22.549 17.932C22.5714 16.5705 23.5361 15.41 24.8714 15.1377C25.9344 14.9189 27.0241 14.8118 28.1138 14.8118C36.9925 14.8118 44.2188 22.0342 44.2188 30.9081C44.2054 39.7776 36.9836 47 28.1049 47Z" fill="#00CEA6"/>
<path d="M32.5622 30.8189C33.6524 30.8189 34.5362 29.9356 34.5362 28.8459C34.5362 27.7563 33.6524 26.8729 32.5622 26.8729C31.4719 26.8729 30.5881 27.7563 30.5881 28.8459C30.5881 29.9356 31.4719 30.8189 32.5622 30.8189Z" fill="#00CEA6"/>
<path d="M23.4779 30.8189C24.5682 30.8189 25.452 29.9356 25.452 28.8459C25.452 27.7563 24.5682 26.8729 23.4779 26.8729C22.3877 26.8729 21.5039 27.7563 21.5039 28.8459C21.5039 29.9356 22.3877 30.8189 23.4779 30.8189Z" fill="#00CEA6"/>
</svg>
