<svg width="375" height="812" viewBox="0 0 375 812" fill="none" xmlns="http://www.w3.org/2000/svg">
<g clip-path="url(#clip0_16_36)">
<rect width="375" height="812" fill="white"/>
<rect width="375" height="812" fill="#00CEA6"/>
<path d="M92 192C118.333 185.667 180.648 162.095 190.5 134C200.352 105.905 157.645 104.5 153.5 122C147.624 146.809 190.5 159 220.5 154C259 147.583 282.333 119 301 96" stroke="#009477" stroke-dasharray="10 10"/>
<path d="M263.717 124H218.09C215.904 121.683 212.718 115.723 217.465 110.416C222.59 104.686 230.477 109.469 234.017 112.312C233.912 108.205 235.89 99.8019 244.634 99.0437C253.378 98.2856 257.23 107.573 258.063 112.312C260.353 109.679 265.653 106.329 269.65 109.109C273.648 111.889 273.086 119.85 263.717 124Z" fill="#05BD99"/>
<path d="M358.073 48.1248C362.718 59.4827 312.332 94.7241 308.128 96.4435C305.771 97.4076 302.878 97.9657 302.002 95.8222C301.709 95.1066 302.123 93.7288 303.084 91.8797L303.083 91.8812L296.392 86.6456C295.487 85.9366 295.425 84.5942 296.264 83.7917L296.826 83.2537C297.844 82.2777 299.239 81.7908 300.641 81.9213L309.226 82.7216C311.321 79.9839 313.756 77.0182 316.37 74.0105L298.974 70.8278C297.598 70.5756 296.964 68.9925 297.786 67.86L298.628 66.7003C300.03 64.7695 302.171 63.4934 304.542 63.1733L329.917 59.7604C335.923 54.0369 341.607 49.4819 345.434 47.9169C346.456 47.4987 347.491 47.1069 348.507 46.7727L342.841 52.6889L343.616 55.0545L352.325 45.8349C355.133 45.3887 357.153 45.8762 358.073 48.1248ZM338.191 79.1428L350.666 85.2285C351.426 85.6001 352.347 85.4275 352.929 84.8076L353.859 83.8135C355.557 82.0009 355.899 79.3263 354.708 77.1786L349.943 68.5847C349.648 68.0529 348.928 67.9342 348.467 68.3417L337.987 77.582C337.478 78.032 337.584 78.8465 338.191 79.1428Z" fill="#05BD99"/>
<rect x="32" y="59" width="56" height="56" rx="14" fill="white"/>
<path d="M60.1049 106C51.2262 106 44 98.7776 44 89.9037V70.9014C44 69.299 45.2996 68 46.903 68C48.5063 68 49.806 69.299 49.806 70.9014V89.9037C49.806 95.5771 54.424 100.197 60.1049 100.197C65.7858 100.197 70.4038 95.5816 70.4038 89.9037C70.4038 84.2972 65.893 79.7218 60.3059 79.6147L60.3014 79.9718C60.2746 81.5743 58.9482 82.8643 57.3538 82.8242C55.7504 82.7974 54.4731 81.4806 54.4999 79.8781L54.549 76.932C54.5714 75.5705 55.5361 74.41 56.8714 74.1377C57.9344 73.9189 59.0241 73.8118 60.1138 73.8118C68.9925 73.8118 76.2188 81.0342 76.2188 89.9081C76.2054 98.7776 68.9836 106 60.1049 106Z" fill="#00CEA6"/>
<path d="M64.5621 89.8189C65.6523 89.8189 66.5361 88.9356 66.5361 87.8459C66.5361 86.7563 65.6523 85.8729 64.5621 85.8729C63.4719 85.8729 62.5881 86.7563 62.5881 87.8459C62.5881 88.9356 63.4719 89.8189 64.5621 89.8189Z" fill="#00CEA6"/>
<path d="M55.478 89.8189C56.5682 89.8189 57.452 88.9356 57.452 87.8459C57.452 86.7563 56.5682 85.8729 55.478 85.8729C54.3877 85.8729 53.5039 86.7563 53.5039 87.8459C53.5039 88.9356 54.3877 89.8189 55.478 89.8189Z" fill="#00CEA6"/>
</g>
<defs>
<clipPath id="clip0_16_36">
<rect width="375" height="812" fill="white"/>
</clipPath>
</defs>
</svg>
