<svg width="439" height="165" viewBox="0 0 439 165" fill="none" xmlns="http://www.w3.org/2000/svg">
<path d="M0 0H439V165C334.919 113.998 261.449 108.352 233.255 108.441C224.751 108.468 216.248 108.368 207.747 108.624C183.238 109.362 120.944 117.098 0 165V0Z" fill="#00CEA6"/>
<path d="M303.649 96.4205H258.123C255.942 94.9189 252.764 91.0556 257.5 87.6154C262.614 83.9012 270.483 87.0011 274.015 88.8441C273.911 86.1821 275.884 80.7352 284.609 80.2437C293.333 79.7523 297.176 85.7725 298.007 88.8441C300.292 87.1376 305.581 84.966 309.569 86.768C313.558 88.57 312.997 93.7302 303.649 96.4205Z" fill="#05BD99"/>
<path d="M401.818 51.1888C406.624 58.9662 353.937 83.2486 349.545 84.4374C347.083 85.1039 344.063 85.4933 343.156 84.0255C342.854 83.5355 343.29 82.5898 344.299 81.3196L344.298 81.3207L337.337 77.7461C336.394 77.262 336.335 76.3417 337.213 75.7895L337.801 75.4193C338.866 74.7477 340.324 74.4106 341.786 74.4968L350.739 75.0256C352.934 73.1434 355.485 71.1042 358.222 69.0357L340.086 66.8937C338.651 66.724 337.996 65.64 338.857 64.8615L339.74 64.0643C341.209 62.7371 343.446 61.8571 345.921 61.6321L372.405 59.2329C378.69 55.2943 384.636 52.1577 388.633 51.0756C389.701 50.7865 390.782 50.5155 391.843 50.2839L385.912 54.3539L386.712 55.9742L395.829 49.632C398.761 49.3195 400.866 49.6491 401.818 51.1888ZM380.968 72.5043L393.96 76.6483C394.752 76.9013 395.713 76.7808 396.323 76.3544L397.297 75.6706C399.074 74.4237 399.44 72.589 398.206 71.119L393.265 65.2372C392.959 64.8732 392.208 64.7935 391.726 65.074L380.76 71.4345C380.228 71.7442 380.335 72.3025 380.968 72.5043Z" fill="#05BD99"/>
<path d="M236.5 103.5C239.5 91 218.5 84 201 103.5M294.5 114C310 105 316.487 100.636 333.075 82" stroke="#009477" stroke-dasharray="10 10"/>
<rect x="50.6526" y="46.9949" width="49.764" height="45.3744" rx="14" fill="white"/>
<path d="M75.6278 85.0769C67.7378 85.0769 61.3163 79.2249 61.3163 72.0348V56.6381C61.3163 55.3397 62.4712 54.2872 63.896 54.2872C65.3208 54.2872 66.4758 55.3397 66.4758 56.6381V72.0348C66.4758 76.6317 70.5795 80.3751 75.6278 80.3751C80.6761 80.3751 84.7799 76.6353 84.7799 72.0348C84.7799 67.4921 80.7714 63.7849 75.8064 63.6981L75.8025 63.9874C75.7786 65.2858 74.5999 66.3311 73.183 66.2985C71.7582 66.2768 70.6232 65.2099 70.647 63.9115L70.6906 61.5244C70.7105 60.4212 71.5677 59.4809 72.7544 59.2603C73.699 59.083 74.6674 58.9962 75.6358 58.9962C83.5257 58.9962 89.9473 64.8482 89.9473 72.0384C89.9354 79.2249 83.5178 85.0769 75.6278 85.0769Z" fill="#00CEA6"/>
<path d="M79.5887 71.966C80.5575 71.966 81.3429 71.2503 81.3429 70.3674C81.3429 69.4845 80.5575 68.7688 79.5887 68.7688C78.6198 68.7688 77.8344 69.4845 77.8344 70.3674C77.8344 71.2503 78.6198 71.966 79.5887 71.966Z" fill="#00CEA6"/>
<path d="M71.5161 71.966C72.4849 71.966 73.2703 71.2503 73.2703 70.3674C73.2703 69.4845 72.4849 68.7688 71.5161 68.7688C70.5473 68.7688 69.7619 69.4845 69.7619 70.3674C69.7619 71.2503 70.5473 71.966 71.5161 71.966Z" fill="#00CEA6"/>
</svg>
