<svg width="375" height="438" viewBox="0 0 375 438" fill="none" xmlns="http://www.w3.org/2000/svg">
        <path
                d="M187.499 59.0427C112.299 57.0408 46.1227 126.107 0 126.107V428C55.8151 453.358 161.635 402.984 217 389C300.221 367.98 331.883 392.013 376 378V159.139C348.928 154.134 262.699 61.0446 187.499 59.0427Z"
                fill="url(#paint0_linear_4_50)" />
        <g filter="url(#filter0_d_4_50)">
                <path
                        d="M51.0701 69.0994C51.508 64.4522 55.8304 61.1705 60.4324 61.9517C107.188 69.8891 134.654 72.3593 174.789 72.7591C179.196 72.803 182.768 76.3765 182.768 80.7839L182.768 150.722C182.768 154.914 179.525 158.406 175.339 158.632C132.613 160.944 98.3613 155.606 50.9876 145.858C46.9986 145.037 44.2625 141.338 44.6446 137.284L51.0701 69.0994Z"
                        fill="url(#paint1_linear_4_50)" />
        </g>
        <mask id="mask0_4_50" style="mask-type:alpha" maskUnits="userSpaceOnUse" x="44" y="35"
                width="139" height="125">
                <path
                        d="M51.2476 43.2334C51.5874 38.5071 55.9518 35.1152 60.6235 35.9077C107.263 43.8194 134.709 46.2834 174.789 46.6826C179.196 46.7265 182.768 50.3 182.768 54.7075L182.768 150.722C182.768 154.914 179.525 158.406 175.339 158.632C132.567 160.946 98.2866 155.595 50.8325 145.826C46.9098 145.019 44.1879 141.423 44.4751 137.428L51.2476 43.2334Z"
                        fill="url(#paint2_linear_4_50)" />
        </mask>
        <g mask="url(#mask0_4_50)">
                <path fill-rule="evenodd" clip-rule="evenodd"
                        d="M121.373 80.7248L125.889 80.0835L120.941 79.6962C120.803 79.418 120.633 79.1363 120.447 78.8608L123.952 76.6339L119.74 78.0104C119.618 77.8855 119.486 77.7755 119.345 77.6726C119.154 77.5243 118.922 77.3796 118.665 77.2403L119.797 73.3934L117.651 76.7961C117.251 76.6574 116.839 76.5493 116.414 76.4957L113.877 71.7122L115.329 76.4831C114.876 76.5383 114.444 76.6916 114.073 76.9551L111.613 75.3977L111.562 75.8713L113.474 77.5457C113.206 77.8921 113.036 78.2092 112.933 78.4937L111.275 78.5473L111.223 79.0288L112.811 79.263C112.832 79.8083 113.103 80.1167 113.103 80.1167L113.101 80.2044L111.052 80.6233L111.023 80.8917L113.066 80.9752C113.047 81.4522 113.043 82.0107 113.067 82.3087C113.116 82.8968 113.162 83.2052 113.412 83.2639C113.654 83.3138 113.898 83.1244 113.898 83.1244L113.906 83.5724C113.906 83.5724 113.596 84.154 113.358 84.5117C113.127 84.8781 112.873 85.378 112.873 85.378C112.873 85.378 111.885 84.7688 111.556 84.4062C111.237 84.0366 111.202 84.0648 111.086 83.5813C110.97 83.0977 111.11 82.8333 110.91 82.3966C110.897 82.3633 110.877 82.3292 110.865 82.2959L102.161 163.404L125.866 165.947L127.081 154.101L128.263 152.687L126.757 151.838L127.073 149.421L123.098 147.917C123.034 147.766 122.957 147.59 122.882 147.398C122.055 145.282 121.734 142.548 121.734 142.548C121.734 142.548 122.152 143.04 122.198 141.345C122.244 139.657 122.061 137.713 122.112 136.72C122.162 135.728 122.487 134.485 122.487 134.485C122.487 134.485 123.294 134.18 123.202 133.252C123.102 132.323 123.149 130.108 123.149 130.108C123.149 130.108 123.576 130.29 123.572 128.988C123.577 127.679 123.971 114.108 123.971 114.108C123.971 114.108 124.717 114.379 125.07 114.729C125.425 115.07 127.098 115.25 128.052 113.883C129.005 112.516 129.429 111.388 129.564 110.652C129.699 109.916 130.507 108.86 130.531 108.113C130.555 107.365 130.944 105.825 130.561 105.225C130.179 104.625 130.31 103.921 130.235 103.354C130.16 102.787 130.22 102.682 130.059 102.393C129.899 102.096 129.641 101.597 129.641 101.597L131.199 98.7624L130.234 96.5987L129.076 96.227L127.69 98.4976C127.69 98.4976 127.306 98.2089 127.103 98.0194C126.9 97.8299 125.791 94.9882 125.464 94.0908C125.137 93.1934 124.698 92.4516 124.284 91.8482C123.877 91.2457 123.726 91.0937 123.284 90.8227C122.842 90.5517 123.462 90.4266 122.683 89.9518C121.903 89.4769 121.249 88.7999 121.047 88.0835C120.844 87.3671 120.882 87.5388 120.882 87.5388C120.882 87.5388 121.278 87.717 121.432 87.3184C121.587 86.9198 121.175 86.0692 121.175 86.0692C121.175 86.0692 121.584 85.083 121.506 84.5477C121.428 84.0123 121.039 83.6911 121.039 83.6911L120.961 82.8524C120.961 82.8524 121.092 83.2017 121.378 82.8412C121.664 82.4806 121.646 82.1993 121.511 81.3783C121.515 81.1871 121.458 80.9734 121.373 80.7248ZM111.621 75.3985L109.49 74.052L111.57 75.8721L111.621 75.3985ZM111.282 78.556L111.23 79.0375L109.257 78.746C109.297 79.3411 109.586 79.5557 109.836 79.6065C110.086 79.6573 110.209 80.2214 110.471 80.7526L111.067 80.6329L111.038 80.9013L110.538 80.8795C110.817 81.3966 110.742 81.8756 110.889 82.2906L102.186 163.398L92.224 162.329L93.5793 149.7L92.8863 148.196L94.5249 147.286L94.8036 144.689L99.1165 144.752C99.1881 144.68 99.2668 144.617 99.3699 144.548C100.419 143.854 101.874 143.236 102.764 142.158C103.662 141.088 104.554 136.345 104.838 134.739C105.122 133.133 105.138 132.464 105.138 132.464C105.138 132.464 104.782 131.092 104.551 129.901C104.319 128.711 104.074 127.575 104.011 126.673C103.939 125.779 103.955 125.11 103.849 123.79C103.743 122.469 104.146 118.711 104.146 118.711C104.146 118.711 104.162 118.05 104.055 117.48C103.949 116.91 103.973 116.162 103.973 116.162C103.973 116.162 103.839 115.62 103.731 114.77C103.63 113.929 103.642 112.773 103.747 111.051C103.844 109.329 104.574 107.283 104.574 107.283C104.574 107.283 104.321 106.817 104.035 106.212C103.748 105.606 103.881 103.4 104.728 101.016C105.575 98.6317 107.233 96.9413 107.233 96.9413C107.233 96.9413 107.129 96.6427 106.811 95.5147C106.493 94.3866 106.607 94.295 106.542 92.811C106.486 91.3278 106.335 91.6229 105.921 91.0914C105.506 90.5599 105.827 89.5803 105.617 89.6775C105.398 89.7818 105.335 89.4077 104.619 89.3788C103.896 89.3491 104.218 88.4256 104.402 87.016C104.585 85.6064 105.549 83.8414 105.818 83.4152C106.079 82.9881 105.973 82.2661 105.828 81.4601C105.683 80.654 105.541 79.7445 105.076 78.1296C104.61 76.5147 104.449 73.4792 104.393 72.5869C104.338 71.6867 104.336 70.2892 104.316 70.4786C104.296 70.6602 103.942 70.9894 103.642 70.9572C103.342 70.9251 103.046 70.031 103.046 70.031C103.046 70.031 102.931 69.9867 102.976 69.4167C103.022 68.8467 102.801 68.8229 102.683 68.5069C102.565 68.1908 102.865 68.0714 102.865 68.0714C102.865 68.0714 102.868 67.7522 103.055 67.421C103.242 67.0898 103.126 65.9434 103.126 65.9434C103.126 65.9434 102.835 65.8244 102.632 65.3316C102.43 64.8388 102.897 64.7213 102.897 64.7213C102.897 64.7213 102.559 64.4534 102.6 64.0666C102.642 63.6798 102.88 63.6894 102.88 63.6894C102.88 63.6894 102.567 63.3364 102.67 62.9722C102.772 62.6158 103.168 62.7222 103.168 62.7222L103.22 62.2407C103.22 62.2407 103.149 61.9297 103.067 61.7292C102.619 61.4337 102.354 61.0779 102.627 60.9155C102.468 60.8346 102.3 60.7607 102.163 60.6981C101.759 60.519 101.615 60.1522 101.437 59.9495C101.259 59.7468 101.328 59.5545 101.492 59.4364C101.657 59.3183 101.783 58.7409 101.905 58.5704C101.918 58.1486 101.343 57.7756 101.343 57.7756L101.806 57.8571L101.713 57.4559L102.259 57.5705L102.432 57.2296L103.194 57.4232L103.66 56.9462L104.136 57.1969C104.141 56.9979 104.097 56.8175 103.948 56.4901C103.595 55.9172 103.25 54.8901 103.837 54.2584C104.422 53.6346 104.671 53.9966 105.124 53.5741C105.576 53.1516 106.07 52.6456 106.474 52.8966C106.887 53.1405 106.31 54.2763 106.755 54.0686C107.201 53.8609 107.39 54.2564 107.872 54.0048C108.354 53.7531 108.76 53.094 108.872 53.3215C108.983 53.5491 108.811 53.8899 108.717 54.3111C108.623 54.7401 107.32 55.5744 107.032 56.0305C106.751 56.4875 106.639 56.715 106.433 56.7727C106.31 56.8074 106.321 57.0002 106.345 57.2263C106.359 57.3876 106.38 57.5655 106.363 57.7234L107.432 57.6624L107.498 58.0847L108.228 58.0513L108.053 58.4236L108.544 58.5323C108.544 58.5323 108.18 58.7967 107.979 59.1104C107.778 59.4241 108.048 59.7326 108.222 60.1905C108.396 60.6563 107.855 60.7898 107.825 61.0661C107.795 61.3424 106.11 61.4969 106.11 61.4969C106.11 61.4969 106.328 61.7678 106.284 61.9626C106.232 62.1487 105.832 62.3054 105.832 62.3054L105.603 63.3907C105.603 63.3907 105.711 63.4263 106.094 64.0263C106.477 64.6263 106.715 65.4583 106.92 66.4464C107.117 67.4417 107.018 67.8462 107.3 69.3776C107.583 70.9091 107.36 70.6057 108.078 72.7668C108.789 74.927 109.294 77.7359 109.267 78.5075C109.263 78.5469 109.267 78.5794 109.263 78.6188L111.282 78.556Z"
                        fill="#EAB204" />
                <path
                        d="M68.9834 78.0734L66.9705 77.8574L57.87 162.667L59.8829 162.883L68.9834 78.0734Z"
                        fill="#EAB204" />
                <path
                        d="M82.7736 79.5531L80.7607 79.3371L71.6602 164.147L73.6731 164.363L82.7736 79.5531Z"
                        fill="#EAB204" />
                <path
                        d="M81.4523 91.8673L65.6491 90.1715L65.4331 92.1844L81.2363 93.8802L81.4523 91.8673Z"
                        fill="#EAB204" />
                <path
                        d="M78.3539 120.742L62.5507 119.047L62.3347 121.06L78.1379 122.755L78.3539 120.742Z"
                        fill="#EAB204" />
                <path
                        d="M141.233 128.184C145.28 121.568 147.602 115.406 149.261 110.442L150.479 110.844C149.068 115.06 147.19 120.136 144.191 125.619L142.901 137.641C143.913 136.768 144.884 135.898 145.823 135.033C155.118 126.472 161.101 118.331 163.24 111.942L164.459 112.344C163.403 115.488 161.465 119.033 158.686 122.831L153.631 169.941L152.353 169.804L157.18 124.817C156.098 126.194 154.901 127.599 153.614 129.026L149.362 168.652L148.083 168.515L152.152 130.602C150.477 132.37 148.663 134.164 146.689 135.972C145.421 137.145 144.089 138.32 142.693 139.504L139.676 167.613L138.398 167.476L141.271 140.7C140.771 141.118 140.255 141.534 139.74 141.949L139.933 140.142C140.45 139.718 140.967 139.294 141.467 138.869L142.591 128.402C142.057 129.279 141.499 130.169 140.908 131.064L141.217 128.183L141.233 128.184ZM136.511 134.984C137.057 134.284 137.578 133.589 138.084 132.893C139.237 131.308 140.276 129.734 141.225 128.183L140.916 131.057C140.392 131.847 139.843 132.65 139.262 133.45L138.413 141.368C138.928 140.952 139.435 140.543 139.942 140.135L139.748 141.942C139.25 142.344 138.735 142.752 138.221 143.152L135.644 167.172L134.373 167.036L136.818 144.247C136.349 144.604 135.879 144.96 135.402 145.316L135.589 143.572C136.067 143.208 136.538 142.843 137.007 142.486L137.759 135.477C137.277 136.104 136.778 136.729 136.257 137.352L136.511 134.984V134.984ZM131.895 140.349C133.588 138.558 135.122 136.759 136.511 134.984L136.257 137.352C135.779 137.931 135.285 138.517 134.767 139.1L134.174 144.634C134.651 144.278 135.12 143.929 135.589 143.572L135.402 145.316C134.933 145.665 134.465 146.014 133.988 146.362L131.799 166.76L130.521 166.623L132.586 147.378C132.067 147.745 131.548 148.121 131.021 148.487L131.204 146.79C131.731 146.416 132.258 146.041 132.769 145.665L133.3 140.723C132.776 141.29 132.227 141.862 131.671 142.433L131.895 140.349ZM127.372 144.774C128.991 143.303 130.498 141.828 131.895 140.349L131.671 142.433C131.143 142.967 130.606 143.5 130.054 144.032L129.64 147.892C130.166 147.525 130.693 147.159 131.204 146.79L131.021 148.487C130.504 148.847 129.986 149.207 129.46 149.573L127.663 166.316L126.384 166.179L128.065 150.518C127.6 150.827 127.135 151.144 126.663 151.453L126.841 149.795C127.314 149.479 127.779 149.161 128.244 148.844L128.616 145.379C128.147 145.808 127.661 146.242 127.176 146.669L127.38 144.775L127.372 144.774ZM94.1146 141.213C97.9547 146.576 102.863 152.101 109.174 157.657C116.519 153.566 122.488 149.209 127.379 144.783L127.175 146.685C126.707 147.098 126.224 147.509 125.741 147.913L125.439 150.731C125.911 150.422 126.376 150.113 126.84 149.803L126.662 151.461C126.198 151.77 125.734 152.072 125.263 152.373L123.81 165.91L122.531 165.773L123.874 153.262C120.568 155.35 117.088 157.42 113.439 159.432L112.824 158.312C116.771 156.133 120.516 153.899 124.048 151.636L124.323 149.078C120.084 152.488 115.151 155.823 109.405 158.999L109.098 158.439L108.679 158.921C103.737 154.598 99.6239 150.292 96.2054 146.061L95.931 148.618C98.9028 151.58 102.089 154.557 105.483 157.524L104.629 158.487C101.49 155.746 98.5276 152.993 95.7407 150.243L94.3982 162.754L93.1194 162.617L94.572 149.08C94.1752 148.686 93.787 148.285 93.398 147.892L93.5759 146.234C93.964 146.635 94.3522 147.036 94.7482 147.438L95.0506 144.62C94.6577 144.114 94.2806 143.611 93.9105 143.116L94.1146 141.213ZM90.6334 135.929C91.6842 137.671 92.8367 139.432 94.1146 141.213L93.9105 143.116C93.5192 142.595 93.1447 142.068 92.7771 141.549L92.4053 145.014C92.7926 145.423 93.1799 145.832 93.575 146.242L93.3972 147.899C93.0011 147.498 92.6138 147.089 92.2257 146.688L90.5452 162.349L89.2664 162.212L91.063 145.469C90.6255 145.007 90.188 144.545 89.7593 144.076L89.9414 142.379C90.3701 142.848 90.7989 143.317 91.2434 143.788L91.6576 139.928C91.2308 139.291 90.812 138.655 90.409 138.021L90.6334 135.929ZM87.2618 129.699C88.2408 131.736 89.3595 133.813 90.6334 135.929L90.4098 138.013C89.9794 137.336 89.5719 136.67 89.1809 135.997L88.6507 140.939C89.0786 141.416 89.5065 141.893 89.9422 142.371L89.7601 144.068C89.3235 143.598 88.8877 143.12 88.4669 142.652L86.4018 161.896L85.1152 161.758L87.3039 141.361C86.9121 140.92 86.5282 140.479 86.1443 140.039L86.3315 138.294C86.7154 138.735 87.0984 139.183 87.4894 139.632L88.0832 134.099C87.7089 133.42 87.3495 132.75 86.9989 132.074L87.2539 129.698L87.2618 129.699ZM84.09 122.053C84.6882 123.77 85.3778 125.528 86.1596 127.321C86.5062 128.109 86.8686 128.898 87.2539 129.698L86.9998 132.066C86.6297 131.348 86.2763 130.623 85.9291 129.915L85.1769 136.925C85.5591 137.381 85.9422 137.829 86.3323 138.286L86.1451 140.031C85.7542 139.582 85.3711 139.133 84.988 138.685L82.5427 161.474L81.2639 161.337L83.8414 137.317C83.4248 136.809 83.0152 136.31 82.6057 135.811L82.7997 134.003C83.2005 134.509 83.6162 135.025 84.0328 135.533L84.8824 127.615C84.4845 126.71 84.1173 125.816 83.7737 124.925L84.0821 122.052L84.09 122.053ZM80.0091 103.011C80.5774 108.206 81.5383 114.728 84.0908 122.045L83.7816 124.926C83.3939 123.926 83.0368 122.938 82.7018 121.968L81.5795 132.427C81.9786 132.949 82.3935 133.472 82.8084 133.996L82.6144 135.804C82.1987 135.288 81.7908 134.773 81.3829 134.258L78.5098 161.034L77.231 160.896L80.2473 132.787C79.1416 131.335 78.0894 129.904 77.0916 128.488C75.5535 126.303 74.1549 124.156 72.8925 122.081L68.8251 159.986L67.5463 159.849L71.7984 120.223C70.8435 118.555 69.98 116.93 69.2069 115.353L64.3797 160.34L63.1088 160.203L68.1613 113.117C66.2593 108.817 65.1102 104.941 64.7454 101.644L66.0214 101.51C66.7567 108.2 70.8691 117.424 78.1427 127.77C78.877 128.815 79.6498 129.872 80.4455 130.94L81.7356 118.918C79.9753 112.924 79.217 107.565 78.7331 103.145L80.0091 103.011Z"
                        fill="#EAB204" />
                <path
                        d="M167.339 88.6274L165.326 88.4114L156.226 173.221L158.239 173.437L167.339 88.6274Z"
                        fill="#EAB204" />
                <path
                        d="M153.549 87.1476L151.536 86.9316L142.435 171.742L144.448 171.958L153.549 87.1476Z"
                        fill="#EAB204" />
                <path
                        d="M166.018 100.942L150.214 99.2458L149.998 101.259L165.802 102.954L166.018 100.942Z"
                        fill="#EAB204" />
                <path
                        d="M162.919 129.817L147.116 128.121L146.9 130.134L162.703 131.83L162.919 129.817Z"
                        fill="#EAB204" />
        </g>
        <g filter="url(#filter1_d_4_50)">
                <path
                        d="M319.327 69.0641C318.889 64.4168 314.567 61.1351 309.965 61.9164C263.21 69.8538 235.744 72.324 195.608 72.7237C191.201 72.7676 187.63 76.3412 187.63 80.7486L187.63 149.838C187.63 154.03 190.873 157.521 195.058 157.754C237.784 160.141 272.035 155.502 319.409 145.818C323.399 145.003 326.135 141.303 325.753 137.249L319.327 69.0641Z"
                        fill="url(#paint3_linear_4_50)" />
        </g>
        <mask id="mask1_4_50" style="mask-type:alpha" maskUnits="userSpaceOnUse" x="187" y="27"
                width="139" height="132">
                <path
                        d="M319.108 34.8806C318.791 30.1365 314.417 26.7191 309.73 27.5142C263.117 35.42 235.676 37.8826 195.608 38.2816C191.201 38.3255 187.63 41.8991 187.63 46.3065L187.63 149.838C187.63 154.03 190.873 157.521 195.058 157.754C237.841 160.145 272.127 155.489 319.599 145.779C323.508 144.98 326.226 141.407 325.96 137.426L319.108 34.8806Z"
                        fill="#651FFF" />
        </mask>
        <g mask="url(#mask1_4_50)">
                <path
                        d="M259.913 137.685L260.816 137.608L260.824 137.607L262.631 137.452L262.638 137.451L262.645 137.451L264.257 137.312C264.082 136.796 263.914 136.278 263.753 135.768C263.745 135.754 263.744 135.74 263.742 135.725C263.334 134.442 262.954 133.157 262.582 131.798C262.582 131.79 262.573 131.777 262.573 131.769L262.572 131.762C262.228 130.474 261.894 129.126 261.572 127.661C261.57 127.646 261.57 127.639 261.561 127.625C261.499 127.325 261.43 127.025 261.367 126.717L258.989 126.921L252.77 54.4874C252.972 54.47 253.15 54.5931 253.284 54.8C253.386 54.9661 253.456 55.193 253.477 55.4388L253.478 55.4461C253.626 57.1665 254.003 58.3357 254.483 59.0883C255.064 60.0069 255.795 60.2937 256.417 60.2403C256.54 60.2298 256.657 60.3217 256.668 60.4518L256.668 60.459L256.759 61.5144L256.76 61.5217C256.771 61.6518 256.678 61.7617 256.548 61.7729L255.811 61.8362L255.936 63.2964C256.434 63.4066 256.756 63.5974 256.781 63.8938L256.799 64.1035L256.8 64.1107L256.801 64.1179L256.864 64.8625C256.951 65.8673 256.522 66.6396 255.853 67.1559L255.823 67.4862C255.928 68.2855 256.039 69.0769 256.143 69.8618C256.144 69.869 256.144 69.8762 256.146 69.8907L256.146 69.8979L256.369 71.561L256.37 71.5682L256.37 71.5754L256.371 71.5827L256.372 71.5899C256.475 72.3747 256.585 73.1445 256.686 73.9005C256.687 73.9077 256.688 73.9221 256.689 73.9294L256.69 73.9366C256.802 74.7425 256.914 75.534 257.025 76.3182C257.026 76.3254 257.027 76.3399 257.028 76.3471C257.137 77.1169 257.246 77.8722 257.347 78.6209C257.356 78.6492 257.359 78.6781 257.361 78.707C257.471 79.4768 257.58 80.2393 257.688 80.9874C257.689 80.9947 257.69 81.0091 257.691 81.0163C257.816 81.8795 257.94 82.7281 258.062 83.5551C258.062 83.5624 258.063 83.5696 258.064 83.584C258.192 84.4761 258.325 85.353 258.45 86.2089C258.45 86.2162 258.451 86.2306 258.452 86.2379C258.556 86.9353 258.658 87.6184 258.76 88.2942C258.76 88.3014 258.762 88.3158 258.762 88.3231C258.863 88.9916 258.963 89.6458 259.062 90.2926L259.063 90.2999C259.064 90.3071 259.065 90.3215 259.066 90.3288L259.067 90.3432C259.077 90.3788 259.087 90.4071 259.083 90.4438C259.183 91.0979 259.289 91.7442 259.388 92.3838L259.389 92.4055C259.536 93.3542 259.689 94.2877 259.84 95.1923C259.841 95.1996 259.842 95.214 259.842 95.2213C259.999 96.1982 260.161 97.1456 260.32 98.0713L260.322 98.093C260.457 98.897 260.597 99.686 260.729 100.454C260.79 100.492 260.832 100.554 260.838 100.627C260.843 100.684 260.826 100.744 260.793 100.783C260.947 101.644 261.092 102.476 261.241 103.286L261.244 103.315C261.462 104.498 261.676 105.638 261.887 106.734L261.889 106.755C262.136 108.03 262.387 109.247 262.632 110.413L262.633 110.42C262.928 111.822 263.23 113.136 263.52 114.385C263.52 114.393 263.521 114.407 263.522 114.414C263.761 115.413 263.995 116.362 264.234 117.273L265.911 117.129L265.918 117.129C266.041 117.118 266.158 117.21 266.169 117.34L266.17 117.348L266.209 117.81L266.21 117.817L265.461 121.479C267.469 127.985 269.613 132.097 272.327 136.474L273.534 136.37L273.541 136.369C273.664 136.359 273.781 136.451 273.792 136.581L273.793 136.588L274.015 139.169L274.028 139.321L274.245 141.851L275.989 144.264C275.997 144.271 276.005 144.285 276.013 144.299L276.559 145.053C276.648 145.074 276.713 145.156 276.721 145.25C276.722 145.257 276.723 145.272 276.724 145.279L279.873 149.64C279.881 149.647 279.889 149.661 279.898 149.674L282.302 153C282.31 153.006 282.318 153.013 282.319 153.027L284.972 156.703C285.004 156.737 285.023 156.779 285.027 156.829C285.031 156.88 285.063 157.416 285.088 158.048L285.373 161.373L262.118 163.369L261.708 158.598L274.344 157.514C274.226 157.152 274.094 156.807 273.95 156.477L273.949 156.47L273.948 156.462C272.85 153.935 271.011 152.105 268.806 150.94L268.799 150.94L268.792 150.941C268.471 150.772 268.137 150.611 267.805 150.472C267.654 150.412 267.503 150.345 267.353 150.293L267.345 150.293L267.338 150.294L267.331 150.295C265.321 149.535 263.098 149.253 260.915 149.44L259.905 137.686L259.913 137.685ZM255.575 138.058L257.187 137.919L257.195 137.918L259.002 137.763L259.009 137.763L259.016 137.762L259.92 137.684L260.927 149.417L260.891 149.42C258.701 149.608 256.543 150.26 254.678 151.359L254.671 151.36L254.664 151.36L254.657 151.361C254.518 151.446 254.38 151.53 254.242 151.615C253.931 151.816 253.636 152.024 253.349 152.245L253.342 152.246L253.334 152.246C251.361 153.77 249.854 155.895 249.209 158.565L249.21 158.572L249.21 158.579C249.124 158.936 249.054 159.299 248.998 159.668L261.706 158.577L262.116 163.348L238.774 165.352L238.385 160.819L238.384 160.812C238.38 160.762 238.39 160.717 238.416 160.678L240.405 156.612C240.411 156.597 240.417 156.589 240.424 156.581L242.226 152.894C242.232 152.879 242.238 152.864 242.245 152.856L244.673 147.892C244.679 147.877 244.686 147.869 244.692 147.854L245.145 146.934C245.151 146.919 245.157 146.904 245.163 146.896L246.47 144.221L246.254 141.705L246.033 139.124C246.021 138.994 246.114 138.884 246.244 138.873L246.251 138.873L247.458 138.769C247.705 138.165 247.945 137.562 248.17 136.96L248.176 136.945L248.175 136.938C249.559 133.294 250.63 129.656 251.386 124.807C251.385 124.792 251.392 124.784 251.391 124.77C251.49 124.142 251.58 123.494 251.668 122.824L250.306 119.343L250.305 119.336L250.265 118.873L250.265 118.866C250.253 118.736 250.346 118.626 250.476 118.615L250.483 118.614L252.153 118.471C252.537 113.945 252.735 108.459 252.756 101.488C252.755 101.474 252.746 101.46 252.745 101.445C252.743 101.416 252.747 101.387 252.752 101.357C252.765 95.2318 252.642 87.9528 252.378 79.1859L252.377 79.1787C252.376 79.1642 252.375 79.157 252.375 79.1497C252.304 76.8838 252.232 74.516 252.143 72.0476L252.142 72.0259C252.14 72.0114 252.139 71.997 252.145 71.9819C252.096 70.6462 252.045 69.2888 251.997 67.8874L251.913 67.5815C251.165 67.1869 250.611 66.499 250.524 65.487L250.46 64.7424L250.46 64.7351L250.459 64.7279L250.441 64.5183C250.416 64.2291 250.708 63.9783 251.172 63.7856L251.047 62.3253L250.316 62.388L250.309 62.3886C250.186 62.3992 250.069 62.3073 250.058 62.1772L249.96 61.035L249.959 61.0278C249.949 60.9049 250.041 60.7878 250.171 60.7766C250.793 60.7232 251.457 60.3166 251.88 59.3117C252.225 58.4884 252.398 57.2793 252.249 55.5516L252.249 55.5443C252.227 55.2986 252.265 55.0623 252.33 54.8819C252.413 54.6564 252.567 54.5048 252.77 54.4874L258.99 126.936L256.611 127.14C256.602 127.454 256.585 127.768 256.575 128.075L256.577 128.097L256.578 128.104C256.51 129.603 256.411 130.995 256.292 132.323L256.292 132.33L256.294 132.345L256.294 132.352C256.167 133.754 256.005 135.093 255.821 136.427L255.822 136.434C255.823 136.441 255.817 136.457 255.817 136.464C255.738 136.98 255.66 137.519 255.575 138.058Z"
                        fill="#EAB204" />
        </g>
        <path
                d="M224 157.5C224.8 159.5 226.333 162.333 227 163.5C228.833 164 232.7 164.7 233.5 163.5C234.5 162 236 159 235 156C234.5 154.5 231 153.5 229 154.5C229 153 228 145.5 227 146.5C226.2 147.3 226.667 154.167 227 157.5C225.667 156.667 222.4 153.5 224 157.5Z"
                fill="#FAC1AD" />
        <path d="M165.681 431L163 374.5L184 371L176.851 431H165.681Z" fill="#FAC1AD" />
        <path d="M194.75 430L190 370L209 372L207.273 430H194.75Z" fill="#FAC1AD" />
        <path
                d="M227 206C224.6 211.6 214.5 225.5 208 235L209 251.5C218 239.333 236.1 213.7 236.5 208.5C236.9 203.3 236.5 178 233.5 163.5H227C228 176.167 229.4 200.4 227 206Z"
                fill="#FAC1AD" />
        <path
                d="M153.5 288.5L167 249.5L156.5 243C154.667 251.833 144.9 278.5 144.5 288.5C144.1 298.5 152.333 311.667 156.5 317L159 305.5L153.5 288.5Z"
                fill="#FAC1AD" />
        <path d="M164.45 286C163.789 277.779 159.396 246.035 159 243H213L204.578 286H164.45Z"
                fill="white" />
        <path
                d="M140.5 374C134.5 370 147 317.5 164 285.5H205C222.5 315 231.9 370.4 229.5 374C226.5 378.5 215.5 376.5 202 374C188.5 371.5 148 379 140.5 374Z"
                fill="#FFC100" />
        <path
                d="M158 220.437C156.165 210.994 158.494 192.621 164 184C170.974 173.49 182.244 172.54 187.138 174.867C189.585 174.73 195.397 175.77 199.068 181.025C203.657 187.593 213 203 213 220.437C213 233.295 221.092 249.973 216.5 255C210.948 261.078 199.068 255 182.5 255C170.674 255 146 267.866 146 249.5C146 241.5 159.835 229.879 158 220.437Z"
                fill="#522D0F" />
        <path
                d="M164.5 434.5C163.382 433.382 163.5 426.5 165.5 426C171 429.5 176 427.833 177.5 427L178.5 416.5C180.667 415.833 182.5 418.5 183 421C183.392 422.961 180.5 432 177.5 434.5C175.353 436.289 167.5 437.5 164.5 434.5Z"
                fill="#FFC100" />
        <path
                d="M193.707 436.104C192.589 434.986 192.707 428.104 194.707 427.604C200.207 431.104 205.207 429.437 206.707 428.604L207.707 418.104C209.874 417.437 211.707 420.104 212.207 422.604C212.6 424.565 209.707 433.604 206.707 436.104C204.56 437.893 196.707 439.104 193.707 436.104Z"
                fill="#FFC100" />
        <path
                d="M289.52 35H226.282C223.253 31.7567 218.838 23.4127 225.417 15.9827C232.52 7.96073 243.451 14.6559 248.356 18.6363C248.212 12.8869 250.953 1.12266 263.072 0.0612267C275.191 -1.0002 280.529 12.0023 281.683 18.6363C284.857 14.9507 292.204 10.2605 297.744 14.1524C303.284 18.0443 302.505 29.1894 289.52 35Z"
                fill="#5FFFE0" />
        <defs>
                <filter id="filter0_d_4_50" x="24.609" y="45.8365" width="178.159" height="137.331"
                        filterUnits="userSpaceOnUse" color-interpolation-filters="sRGB">
                        <feFlood flood-opacity="0" result="BackgroundImageFix" />
                        <feColorMatrix in="SourceAlpha" type="matrix"
                                values="0 0 0 0 0 0 0 0 0 0 0 0 0 0 0 0 0 0 127 0"
                                result="hardAlpha" />
                        <feOffset dy="4" />
                        <feGaussianBlur stdDeviation="10" />
                        <feColorMatrix type="matrix"
                                values="0 0 0 0 0.128906 0 0 0 0 0 0 0 0 0 0.4125 0 0 0 0.16 0" />
                        <feBlend mode="normal" in2="BackgroundImageFix"
                                result="effect1_dropShadow_4_50" />
                        <feBlend mode="normal" in="SourceGraphic" in2="effect1_dropShadow_4_50"
                                result="shape" />
                </filter>
                <filter id="filter1_d_4_50" x="167.63" y="45.8012" width="178.159" height="136.571"
                        filterUnits="userSpaceOnUse" color-interpolation-filters="sRGB">
                        <feFlood flood-opacity="0" result="BackgroundImageFix" />
                        <feColorMatrix in="SourceAlpha" type="matrix"
                                values="0 0 0 0 0 0 0 0 0 0 0 0 0 0 0 0 0 0 127 0"
                                result="hardAlpha" />
                        <feOffset dy="4" />
                        <feGaussianBlur stdDeviation="10" />
                        <feColorMatrix type="matrix"
                                values="0 0 0 0 0.128906 0 0 0 0 0 0 0 0 0 0.4125 0 0 0 0.16 0" />
                        <feBlend mode="normal" in2="BackgroundImageFix"
                                result="effect1_dropShadow_4_50" />
                        <feBlend mode="normal" in="SourceGraphic" in2="effect1_dropShadow_4_50"
                                result="shape" />
                </filter>
                <linearGradient id="paint0_linear_4_50" x1="188" y1="59" x2="188" y2="445"
                        gradientUnits="userSpaceOnUse">
                        <stop stop-color="#04EBBE" />
                        <stop offset="1" stop-color="#01D2A9" />
                </linearGradient>
                <linearGradient id="paint1_linear_4_50" x1="121.311" y1="67.0202" x2="112.864"
                        y2="156.654" gradientUnits="userSpaceOnUse">
                        <stop stop-color="#FFD657" />
                        <stop offset="1" stop-color="#FFC100" />
                </linearGradient>
                <linearGradient id="paint2_linear_4_50" x1="121.311" y1="67.0202" x2="112.864"
                        y2="156.654" gradientUnits="userSpaceOnUse">
                        <stop stop-color="#651FFF" />
                        <stop offset="1" stop-color="#4505D2" />
                </linearGradient>
                <linearGradient id="paint3_linear_4_50" x1="249.126" y1="66.9811" x2="257.528"
                        y2="156.142" gradientUnits="userSpaceOnUse">
                        <stop stop-color="#FFD657" />
                        <stop offset="1" stop-color="#FFC100" />
                </linearGradient>
        </defs>
</svg>