<svg width="348" height="467" viewBox="0 0 348 467" fill="none" xmlns="http://www.w3.org/2000/svg">
        <path
                d="M266.555 67.1157C283.355 103.116 327.555 120.116 347.555 124.116V351.116C342.555 360.782 321.555 404.116 294.555 426.116C220.555 486.412 101.555 472.116 32.5548 426.116C-36.4452 380.116 21.5548 305.116 48.5548 245.116C75.5548 185.116 62.5548 155.116 62.5548 87.1157C62.5548 19.1157 103.555 2.11567 153.555 0.115671C203.555 -1.88433 245.555 22.1157 266.555 67.1157Z"
                fill="url(#paint0_linear_1_412)" />
        <path
                d="M98.5548 84.6849H25.5019C22.0019 81.0182 16.9019 71.5849 24.5019 63.1849C32.7074 54.1157 45.3352 61.6849 51.0019 66.1849C50.8352 59.6849 54.0019 46.3849 68.0019 45.1849C82.0019 43.9849 88.1686 58.6849 89.5019 66.1849C93.1686 62.0182 101.655 56.7157 108.055 61.1157C114.455 65.5157 113.555 78.1157 98.5548 84.6849Z"
                fill="#5FFFE0" />
        <path
                d="M123.435 321.303C120.842 313.457 112.61 288.255 111.667 283.126C110.556 277.029 106.398 256.123 105.624 251.52C104.833 246.918 103.419 237.577 108.418 234.52C113.418 231.463 115.826 236.354 117.24 238.324C118.182 239.632 119.58 246.018 118.788 253.949C118.014 261.88 120.001 270.303 120.741 279.882C124.849 288.272 128.502 312.557 129.478 319.537L123.435 321.303Z"
                fill="#FAC1AD" />
        <path
                d="M112.324 231.973C112.324 231.973 103.789 224.619 101.6 220.594C99.4119 216.569 103.688 205.123 103.688 205.123L94.1258 203.119C94.1258 203.119 88.6883 213.241 85.355 224.11C89.5468 241.5 115.186 244.744 112.324 231.973Z"
                fill="#FAC1AD" />
        <path
                d="M111.011 182.331C111.011 182.331 112.341 185.185 112.593 187.613C112.846 190.042 117.004 192.233 118.418 192.895C119.58 194.152 118.368 195.799 116.297 196.546C115.169 198.143 115.876 199.06 116.129 199.535C115.556 200.164 114.95 200.452 114.95 200.452L115.64 201.709C115.64 201.709 114.883 202.219 114.95 203.645C115.018 205.072 116.061 209.47 111.028 209.012C105.994 208.553 104.546 208.417 102.459 210.269C100.388 212.12 99.1257 217.316 99.1257 217.316L89.4795 213.631C89.4795 213.631 92.3919 205.666 91.8868 202.966C91.3986 200.282 89.0586 199.196 87.897 196.665C86.7354 194.152 88.4021 192.216 90.0518 192.385C91.2976 189.787 91.2134 184.913 92.7959 183.911C94.3783 182.909 111.011 182.331 111.011 182.331Z"
                fill="#FAC1AD" />
        <path
                d="M127.441 313.661C127.441 313.661 140.387 342.379 141.027 347.474C141.667 352.552 144.791 409.841 144.555 415.616C141.727 417.518 135.555 415.616 135.555 415.616C135.555 415.616 134.798 407.526 132.728 398.542C130.388 388.352 126.532 376.991 126.6 373.017C126.718 365.527 126.835 357.783 127.441 354.335C128.048 350.871 110.455 321.779 110.455 321.779L127.441 313.661Z"
                fill="#FAC1AD" />
        <path
                d="M104.862 315.342C104.862 315.342 105.137 349.595 103.387 354.395C101.636 359.195 72.5285 407.362 69.6811 412.374C66.2891 412.74 61.9027 409.289 61.9027 409.289C61.9027 409.289 73.934 375.027 77.444 368.444C80.9541 361.861 86.0806 356.931 88.182 354.137C90.3044 351.355 85.8688 316.797 85.8688 316.797L104.862 315.342Z"
                fill="#FAC1AD" />
        <path
                d="M83.0549 276.616C83.0549 276.616 59.5476 342.736 56.147 352.603C52.7464 362.47 73.1668 368.261 91.2303 368.907C109.311 369.552 147.374 369.977 150.555 368.907C153.737 367.837 148.922 336.724 144.428 330.508C139.933 324.292 115.686 285.226 112.555 276.616C109.424 268.005 83.0549 276.616 83.0549 276.616Z"
                fill="#FFC100" />
        <path
                d="M83.4022 223.464C83.4022 223.464 80.5549 238.616 80.5549 258.116C80.5549 264.616 82.0549 278.616 82.0549 278.616C82.0549 278.616 97.1056 285.901 115.624 283.116C112.24 273.616 113.756 269.616 115.624 263.782C119.613 251.316 126.179 244.082 112.24 231.633C105.456 230.308 102.072 231.548 99.6813 228.423C95.8766 223.396 89.7993 220.543 83.4022 223.464Z"
                fill="white" />
        <path
                d="M96.3817 232.533C95.0686 230.512 92.8801 225.485 87.7455 228.321C82.611 231.141 83.5874 240.532 84.1429 245.169C84.7153 249.805 87.5603 272.002 88.3684 278.15C89.1765 284.297 115.018 314.171 115.018 314.171C117.61 314.171 120.64 312.218 120.64 312.218C120.64 312.218 102.24 284.281 97.8968 274.21C97.6274 264.614 96.0281 256.106 97.1897 248.209C98.3513 240.311 97.2571 233.875 96.3817 232.533Z"
                fill="#FAC1AD" />
        <path
                d="M98.5028 201.2C97.7453 197.837 98.284 195.476 99.5971 193.659C100.893 191.842 101.634 190.568 101.634 190.042C101.634 190.042 111.92 187.002 114.31 187.138C115.506 182.467 111.954 175.64 106.886 173.229C101.802 170.817 90.3044 168.847 83.4022 176.252C83.4022 176.252 73.5035 179.852 73.5035 196.835C73.5035 207.891 54.8507 225.859 58.3523 230.801C66.7696 242.689 88.6546 237.594 97.0719 234.198C102.627 231.956 96.853 230.241 98.7553 220.611C100.439 212.12 94.9002 203.221 92.375 198.397C90.7421 195.289 89.5468 192.606 90.7421 191.638C91.9373 190.653 95.8935 190.891 96.1965 194.118C96.4995 197.361 96.1965 200.894 97.3076 202.473C97.3076 202.49 99.0247 203.509 98.5028 201.2Z"
                fill="#522D0F" />
        <path
                d="M87.1226 178.239C99.7654 176.642 112.678 176.404 124.546 178.867C132.576 180.531 140.051 183.418 146.431 187.324C136.684 184.93 129.377 189.94 121.011 193.235C112.644 196.529 104.597 200.486 95.8935 203.051C87.2068 205.615 77.4933 206.668 69.5642 203.968C62.561 201.59 57.8473 196.614 53.4198 191.842L51.871 189.379C50.6926 187.494 52.2245 185.066 54.9686 184.42C65.6249 181.941 76.3148 179.597 87.1226 178.239Z"
                fill="#FFC100" />
        <path
                d="M117.055 183.367C118.738 182.484 114.024 169.747 113.536 168.677C110.624 162.308 103.183 157.757 93.7218 159.489C77.7121 162.444 77.5606 175.878 76.6179 185.558C76.6179 185.558 93.0652 196.037 117.055 183.367Z"
                fill="#FFC100" />
        <path
                d="M77.0219 181.295C80.574 182.943 96.1965 188.904 116.432 177.22C117.29 180.243 117.795 182.977 117.055 183.384C93.0652 196.071 76.6179 185.575 76.6179 185.575C76.7525 184.2 76.8704 182.756 77.0219 181.295Z"
                fill="#D99800" />
        <path
                d="M112.627 311.334C112.627 311.334 116.667 324.666 123.435 326.67C128.031 328.029 123.435 320.471 123.435 320.471C123.435 320.471 124.226 321.117 124.866 321.117C125.505 321.117 124.63 319.35 123.755 317.822C122.879 316.293 122.256 314.154 118.452 308.838C117.307 307.225 112.627 311.334 112.627 311.334Z"
                fill="#FAC1AD" />
        <path
                d="M57.5549 413.116C58.3549 412.316 61.5549 408.449 63.0549 406.616C64.2549 408.616 68.8882 410.116 71.0549 410.616C71.5549 411.949 72.9549 414.816 74.5549 415.616C76.5549 416.616 79.8179 417.966 81.0549 419.616C82.5549 421.616 84.0549 425.116 82.5549 426.616C80.0549 429.116 72.5549 426.616 69.5549 425.116C67.6575 424.167 57.5549 418.616 56.5549 417.116C55.5549 415.616 56.5549 414.116 57.5549 413.116Z"
                fill="#FFC100" />
        <path
                d="M133.759 423.513C134.11 422.437 135.212 417.541 135.72 415.227C137.695 416.467 142.505 415.706 144.664 415.171C145.713 416.133 148.26 418.055 150.048 418.044C152.284 418.03 155.805 417.757 157.655 418.667C159.898 419.771 162.82 422.213 162.162 424.229C161.065 427.59 153.246 428.757 149.892 428.778C147.771 428.792 136.249 428.417 134.679 427.532C133.108 426.647 133.32 424.857 133.759 423.513Z"
                fill="#FFC100" />
        <path
                d="M233.742 316.81C233.742 316.81 221.637 351.845 218.092 356.105C214.547 360.365 167.158 399.036 162.419 403.112C158.8 402.267 155.531 397.163 155.531 397.163C155.531 397.163 180.309 366.553 186.297 361.1C192.285 355.646 199.339 352.451 202.535 350.376C205.712 348.301 213.666 311.467 213.666 311.467L233.742 316.81Z"
                fill="#E0A394" />
        <path
                d="M228.213 344.152C231.317 337.945 245.461 281.996 245.461 281.996C245.461 281.996 219.011 272.999 215.503 277.699C211.976 282.4 205.345 291.838 206.521 295.694C207.696 299.568 203.949 331.812 203.031 336.403C201.194 343.748 175.479 367.618 175.479 367.618L192.01 384.144C192.01 384.144 217.725 363.946 221.399 358.437C225.072 352.929 228.213 344.152 228.213 344.152Z"
                fill="#029F80" />
        <path
                d="M235.212 306.142C235.212 306.142 249.337 337.192 250.035 342.683C250.733 348.173 253.812 410.181 253.555 416.425C250.469 418.481 243.881 416.425 243.881 416.425C243.881 416.425 243.238 407.611 240.979 397.897C238.426 386.88 234.22 374.614 234.293 370.299C234.422 362.201 234.55 353.847 235.212 350.101C235.873 346.355 216.678 314.901 216.678 314.901L235.212 306.142Z"
                fill="#E0A394" />
        <path
                d="M253.745 330.068C238.206 296.08 217.817 275.331 217.817 275.331C217.817 275.331 193.149 288.441 194.159 294.225C194.159 294.225 230.583 347.438 230.583 351.111C230.583 354.783 234.256 384.162 234.256 384.162H256.298C256.316 384.162 256.684 336.55 253.745 330.068Z"
                fill="#00AF8D" />
        <path
                d="M236.901 233.52C236.901 233.52 242.834 253.939 247.114 262.826C251.394 271.713 275.529 288.606 285.485 293.527C289.14 298.632 288.056 303.388 289.618 304.783C291.161 306.179 300.951 304.783 299.408 296.41C297.865 288.037 287.414 285.521 281.756 281.427C276.117 277.332 260.78 258.291 257.584 256.326C254.627 249.128 249.539 218.28 244.836 213.157C240.704 208.676 236.901 233.52 236.901 233.52Z"
                fill="#E0A394" />
        <path
                d="M196.418 207.685C196.418 207.685 173.532 207.446 166.625 214.828C159.737 222.209 164.403 268.004 164.66 278.599C164.899 289.194 189.787 295.584 197.41 288.698C205.051 281.794 196.418 207.685 196.418 207.685Z"
                fill="#00B793" />
        <path
                d="M214.162 205.738C214.162 205.738 186.077 204.49 179.924 210.88C173.77 217.288 181.228 267.876 179.924 277.369C178.601 286.844 185.875 294.115 202.48 290.167C219.084 286.219 214.162 205.738 214.162 205.738Z"
                fill="#029F80" />
        <path
                d="M214.988 190.608C214.988 190.608 216.145 208.162 211.866 212.275C221.564 219.492 230.84 211.008 230.84 211.008C230.84 211.008 226.652 202.874 233.907 193.087C231.611 189.965 214.988 190.608 214.988 190.608Z"
                fill="#E0A394" />
        <path
                d="M207.457 210.329C207.457 210.329 211.866 210.88 214.033 207.666C217.009 208.089 230.436 209.796 230.436 209.796C230.436 209.796 233.209 212.385 235.91 211.908C233.852 216.756 231.722 240.167 224.962 237.431C218.221 234.695 207.457 210.329 207.457 210.329Z"
                fill="#E0A394" />
        <path
                d="M206.429 170.685C206.429 170.685 203.067 181.923 207.053 185.742C210.911 182.804 212.031 171.622 212.031 171.622L206.429 170.685Z"
                fill="#522D0F" />
        <path
                d="M208.872 173.219C208.872 173.219 204.427 188.46 206.135 194.225C207.843 199.991 211.37 203.755 214.07 204.526C216.77 205.316 228.048 203.517 231.336 194.758C236.093 194.225 237.618 189.984 237.361 187.597C237.085 185.228 233.007 184.714 231.74 186.33C233.301 178.93 232.567 172.319 232.567 172.319L208.872 173.219Z"
                fill="#E0A394" />
        <path
                d="M210.157 194.446L218.533 194.868C218.533 194.868 216.348 197.935 213.574 197.935C210.819 197.935 210.157 194.446 210.157 194.446Z"
                fill="white" />
        <path
                d="M229.83 175.863C229.83 175.863 228.948 180.215 230.068 182.4C230.693 184.659 229.903 188.368 229.903 188.368L231.85 188.698C231.85 188.698 235.505 185.228 236.295 186.018C237.085 186.807 238.959 191.838 232.273 194.611C231.354 194.776 230.528 197.145 230.656 200.322C232.75 200.817 242.008 190.131 242.761 183.098C243.514 176.065 244.763 166.829 237.948 166.444C237.361 161.725 233.852 158.015 225.127 157.189C216.403 156.363 211.351 162.092 207.108 165.011C202.884 167.931 200.569 174.192 212.747 175.221C224.98 176.267 229.83 175.863 229.83 175.863Z"
                fill="#522D0F" />
        <path
                d="M210.231 209.649C210.231 209.649 217.211 217.068 225.091 217.068C228.764 217.068 234.275 217.068 234.734 211.137C242.944 213.597 248.639 218.004 248.639 218.004C248.639 218.004 253.414 232.143 248.161 252.158C242.908 272.191 247.132 305.206 247.132 305.206C247.132 305.206 206.723 308.878 191.532 298.393C194.159 281.317 195.279 253.149 194.287 240.681C193.296 228.195 191.532 215.544 191.532 215.544C191.532 215.544 204.151 209.319 210.231 209.649Z"
                fill="#FFC100" />
        <path
                d="M231.501 210.604C231.501 210.604 237.746 211.816 241.089 216.645C244.028 220.887 250.255 234.089 246.379 264.607C250.604 256.583 252.496 232.786 251.247 225.771C249.998 218.775 245.847 208.107 231.501 210.604Z"
                fill="#00B793" />
        <path
                d="M188.942 218.261C188.942 218.261 173.844 254.214 172.191 263.946C170.556 273.678 180.456 301.405 185.746 311.173C185.765 317.453 182.146 320.703 182.605 322.741C183.065 324.761 191.844 329.278 195.426 321.566C199.008 313.836 191.936 305.738 189.695 299.146C187.454 292.554 185.948 268.151 184.479 264.699C186.242 257.115 198.475 230.711 201.139 225.221C202.443 222.521 203.233 216.443 199.008 214.313C191.844 210.678 188.942 218.261 188.942 218.261Z"
                fill="#E0A394" />
        <path
                d="M203.839 179.499L213.574 181.115C213.574 181.115 213.151 186.495 209.166 186.844C205.198 187.174 202.424 185.21 203.839 179.499Z"
                fill="#191919" />
        <path
                d="M216.035 181.519L225.881 182.363C225.881 182.363 225.881 187.762 221.931 188.405C217.982 189.066 215.062 187.303 216.035 181.519Z"
                fill="#191919" />
        <path d="M216.403 182.639L212.913 182.033L213.298 181.06L216.164 181.519L216.403 182.639Z"
                fill="#191919" />
        <path d="M234.275 186.679L225.587 183.667L225.881 182.363L235.101 186.164L234.275 186.679Z"
                fill="#191919" />
        <path
                d="M196.969 212.679C196.969 212.679 192.028 211.559 188.355 217.068C184.681 222.576 182.844 229.921 182.844 229.921L197.539 237.266C197.539 237.266 203.049 224.413 203.049 220.74C203.049 217.068 203.747 213.799 196.969 212.679Z"
                fill="#FFC100" />
        <path
                d="M189.163 211.559C189.163 211.559 202.461 209.686 205.933 223.843C209.423 237.982 201.671 258.493 191.532 270.263C190.338 278.122 191.826 280.454 191.826 280.454C191.826 280.454 202.902 270.979 210.36 246.392C217.817 221.787 208.761 208.107 200.569 207.685C192.377 207.262 189.163 211.559 189.163 211.559Z"
                fill="#00B793" />
        <path
                d="M149.136 402.057C150.098 401.342 154.046 397.784 155.9 396.095C156.849 398.375 161.471 400.66 163.664 401.517C163.983 402.991 165.008 406.21 166.561 407.295C168.502 408.65 171.712 410.568 172.754 412.486C174.017 414.813 175.049 418.71 173.247 420.051C170.243 422.285 162.771 418.51 159.859 416.477C158.018 415.191 148.289 407.819 147.473 406.093C146.656 404.368 147.935 402.95 149.136 402.057Z"
                fill="#522D0F" />
        <path
                d="M241.202 424.348C241.591 423.159 242.809 417.746 243.37 415.188C245.554 416.558 250.871 415.718 253.257 415.126C254.418 416.19 257.232 418.314 259.21 418.302C261.682 418.287 265.574 417.985 267.619 418.991C270.099 420.211 273.329 422.91 272.601 425.14C271.389 428.855 262.745 430.145 259.037 430.169C256.692 430.183 243.956 429.769 242.219 428.791C240.483 427.813 240.717 425.834 241.202 424.348Z"
                fill="#522D0F" />
        <defs>
                <linearGradient id="paint0_linear_1_412" x1="173.777" y1="0" x2="173.777"
                        y2="466.155" gradientUnits="userSpaceOnUse">
                        <stop stop-color="#04EBBE" />
                        <stop offset="1" stop-color="#00CFA7" />
                </linearGradient>
        </defs>
</svg>