<svg width="375" height="812" viewBox="0 0 375 812" fill="none" xmlns="http://www.w3.org/2000/svg">
<g clip-path="url(#clip0_6_134)">
<rect width="375" height="812" fill="white"/>
<rect width="375" height="812" fill="#00CEA6"/>
<path d="M291.101 182H231.066C228.189 178.942 223.998 171.075 230.244 164.069C236.987 156.506 247.365 162.818 252.022 166.571C251.885 161.15 254.487 150.059 265.993 149.058C277.498 148.057 282.566 160.316 283.661 166.571C286.675 163.096 293.649 158.674 298.909 162.344C304.168 166.013 303.428 176.521 291.101 182Z" fill="#05BD99"/>
<path d="M268.073 112.125C272.718 123.483 222.332 158.724 218.128 160.444C215.771 161.408 212.878 161.966 212.002 159.822C211.709 159.107 212.123 157.729 213.084 155.88L213.083 155.881L206.392 150.646C205.487 149.937 205.425 148.594 206.264 147.792L206.826 147.254C207.844 146.278 209.239 145.791 210.641 145.921L219.226 146.722C221.321 143.984 223.756 141.018 226.37 138.01L208.974 134.828C207.598 134.576 206.964 132.993 207.786 131.86L208.628 130.7C210.03 128.77 212.171 127.493 214.542 127.173L239.917 123.76C245.923 118.037 251.607 113.482 255.434 111.917C256.456 111.499 257.491 111.107 258.507 110.773L252.841 116.689L253.616 119.054L262.325 109.835C265.133 109.389 267.153 109.876 268.073 112.125ZM248.191 143.143L260.666 149.228C261.426 149.6 262.347 149.428 262.929 148.808L263.859 147.813C265.557 146.001 265.899 143.326 264.708 141.179L259.943 132.585C259.648 132.053 258.928 131.934 258.467 132.342L247.987 141.582C247.478 142.032 247.584 142.846 248.191 143.143Z" fill="#05BD99"/>
<path d="M0 261C26.3333 254.667 88.6484 231.095 98.5 203C108.352 174.905 65.6447 173.5 61.5 191C55.6242 215.809 98.5 228 128.5 223C167 216.583 190.333 188 209 165" stroke="#009477" stroke-dasharray="10 10"/>
<path d="M249.629 692.265C250.24 689.237 251.791 686.864 254.967 686.18C260.288 684.962 265.838 692.527 268.269 696.42C271.618 701.786 273.42 708.094 273.571 714.426C273.608 716.904 273.648 720.78 275.004 722.915C277.833 727.318 280.774 720.535 281.687 717.603C284.35 708.831 281.092 699.651 278.113 691.387C273.241 677.979 254.071 664.228 269.67 650.331C271.721 648.489 274.322 646.937 277.084 647.065C286.613 647.483 290.582 662.178 291.879 669.565C292.341 672.236 292.169 675.568 293.614 677.972C296.292 682.415 299.798 678.324 301.145 674.836C302.465 671.307 302.583 667.356 302.329 663.652C301.782 655.736 299.791 648.065 298.089 640.381C296.584 633.668 294.305 626.19 299.058 620.167C301.449 617.175 305.548 615.46 309.228 616.883C312.146 618.009 314.339 620.6 315.618 623.472C317.041 626.695 317.645 630.255 317.755 633.786C317.806 635.658 316.531 640.736 318.329 642.102C319.097 642.722 320.334 642.435 321.078 641.761C326.854 636.517 325.252 626.919 323.857 620.193C322.571 613.989 321.12 607.716 321.119 601.343C321.122 596.545 322.41 585.024 329.295 585.267C332.669 585.375 334.763 589.164 335.121 592.53C335.478 595.896 335.829 598.76 337.012 601.935C336.342 600.117 341.021 593.756 342.006 592.236C344.226 588.853 346.83 585.69 349.721 582.871C355.629 577.152 362.702 572.743 370.526 570.275C373.923 569.206 377.167 568.715 380.151 571.107C382.806 573.183 384.551 576.757 385.568 579.863C386.408 582.432 386.65 585.309 385.772 587.889C382.931 595.946 371.706 598.085 365.553 602.716C361.3 605.904 358.507 610.891 358.359 616.232C358.411 614.202 368.84 611.579 370.503 611.485C374.008 611.297 378.026 612.466 380.094 615.497C381.554 617.654 381.843 620.469 381.158 622.981C378.921 631.589 369.612 633.972 362.207 636.309C354.155 638.838 346.329 642.201 338.954 646.335C340.037 647.699 342.169 647.055 343.778 646.341C348.448 644.275 353.282 642.637 358.259 641.528C361.703 640.755 365.607 640.182 368.412 642.932C370.462 644.993 371.156 648.284 370.072 651.001C368.635 654.579 364.728 656.763 361.947 659.209C358.863 661.917 355.643 664.06 351.942 665.928C344.218 669.848 335.492 672.707 329.48 679.3C328.654 680.207 327.84 681.404 328.133 682.609C328.617 684.64 331.503 684.685 333.538 684.165C338.371 682.884 343.157 680.949 348.132 680.914C353.142 680.887 358.633 683.427 360.06 688.227C361.233 692.152 359.287 696.485 356.258 699.276C353.236 702.032 349.254 703.521 345.355 704.775C332.656 708.909 318.672 712.318 310.371 722.818C322.85 718.89 336.996 716.624 348.479 722.772C351.513 724.387 354.544 727.254 354.07 730.668C353.686 733.455 351.044 735.392 348.458 736.518C338.905 740.821 327.749 739.43 317.594 742.107C309.289 744.299 301.851 749.458 296.553 756.231C293.074 760.722 290.825 771.512 284.727 773.038C278.1 774.709 274.651 764.166 273.349 759.463C271.207 751.655 270.874 743.209 267.433 735.818C263.567 727.519 257.337 720.139 253.307 711.77C251.445 708.064 248.379 698.637 249.629 692.265Z" fill="#00E3B7"/>
<path d="M106 692C52 692 27 735 0 749V813H376V735C373.333 730 362.4 717.6 340 708C312 696 273 717 230 720C187 723 150.011 692 106 692Z" fill="#05BD99"/>
<path d="M343 81.5692H269.947C266.447 77.9026 261.347 68.4692 268.947 60.0692C277.153 51 289.78 58.5692 295.447 63.0692C295.28 56.5692 298.447 43.2692 312.447 42.0692C326.447 40.8692 332.614 55.5692 333.947 63.0692C337.614 58.9026 346.1 53.6 352.5 58C358.9 62.4 358 75 343 81.5692Z" fill="#04ECBE"/>
<path d="M83.8594 679.951C79.9725 668.221 83.2913 655.383 82.0954 643.084C81.7665 639.628 81.0339 636.112 79.1502 633.194C76.1453 628.526 70.2402 625.952 64.7686 626.82C59.2969 627.688 54.4981 631.862 52.7639 637.144C51.5679 640.78 51.7473 644.715 52.0164 648.545C53.018 662.775 54.9465 677.273 51.6277 691.128C49.6244 699.492 45.7375 707.452 45.0946 716.011C44.6162 722.445 46.0066 728.893 48.0248 735.028C52.7938 749.511 63.9613 762.604 80.705 756.828C88.9424 753.985 91.0054 746.519 91.9024 738.664C92.8891 730.06 95.7296 722.13 96.8358 713.751C98.4504 701.587 87.7165 691.592 83.8594 679.951Z" fill="#04A989"/>
<path d="M46.9782 731.572L73.6935 752.699C74.74 768.784 75.6669 785.347 76.3545 801.731C77.5505 801.805 78.7316 801.895 79.9126 802C79.21 785.526 78.2831 768.843 77.2366 752.669L93.1432 731.333C93.5468 729.417 93.9953 727.517 94.4438 725.617L77.0123 749.033C76.3844 739.592 75.7267 730.345 75.0539 721.428L93.7561 699.298C93.3823 698.535 92.9937 697.772 92.59 697.009L74.7998 718.061C73.8131 705.163 72.7965 693.014 71.8397 682.032L81.9458 667.832C81.9009 666.486 81.9009 665.139 81.9308 663.777L71.5258 678.396C70.554 667.428 69.6421 657.748 68.8797 649.803L80.8694 636.845C80.6003 636.022 80.2564 635.214 79.8677 634.436L68.5657 646.646C67.3548 634.317 66.5624 626.94 66.5325 626.626L63.0044 627.015C63.0343 627.329 63.8565 634.855 65.0824 647.394L52.1508 639.763C52.0163 640.616 51.9266 641.484 51.8817 642.351L65.3665 650.296C66.1289 658.211 67.0408 667.862 67.9976 678.785L53.4515 670.211C53.4814 671.139 53.4814 672.052 53.4963 672.979L68.2518 681.687C69.2235 692.715 70.2401 704.924 71.2268 717.896L48.9067 700.256C48.6376 701.049 48.3835 701.857 48.1294 702.65L71.466 721.113C72.1537 730.285 72.8413 739.801 73.4842 749.527L46.0513 727.831C46.3204 729.088 46.6344 730.345 46.9782 731.572Z" fill="#03987B"/>
<path d="M35.695 736.819C35.0259 735.104 34.5767 733.223 34.4379 731.032C34.0536 724.94 35.7995 718.281 34.0063 712.058C31.9006 704.787 24.2319 699.487 19.2688 695.055C16.9159 692.946 13.6578 693.35 11.6527 695.279C9.39828 697.448 9.59183 700.94 9.71983 704.27C9.88062 708.488 9.17363 712.573 9.36193 716.838C9.69537 724.612 14.2234 729.272 16.9222 736.078C18.5456 740.175 17.8531 743.751 17.7687 747.834C17.4899 760.116 24.5871 770.729 35.4202 769.428C42.3601 768.587 49.0312 762.144 45.8103 752.91C44.8562 750.193 43.184 747.86 41.4446 745.688C39.0504 742.703 36.9631 740.056 35.695 736.819Z" fill="#03A989"/>
<path d="M24.3426 730.668C25.0974 732.745 26.0453 735.22 27.1228 738.009L16.1177 734.211C16.3618 734.743 16.5974 735.285 16.8246 735.839L27.7439 739.61C27.9946 740.252 28.2484 740.914 28.5151 741.594C30.0575 745.561 31.8172 750.084 33.6365 754.933L17.8277 750.575C17.8586 751.048 17.898 751.509 17.9573 751.966L34.2026 756.44C39.2398 769.964 44.6472 785.858 47.4353 799.907C48.0677 799.699 48.6915 799.503 49.3368 799.313C46.5036 785.17 41.0833 769.258 36.0476 755.744L41.9769 746.368C41.7995 746.142 41.622 745.915 41.4346 745.69C41.3222 745.554 41.2197 745.418 41.1072 745.283L35.4655 754.198C33.6461 749.349 31.8895 744.846 30.3471 740.879C30.0949 740.227 29.8472 739.605 29.6094 738.982L34.4895 731.775C34.4633 731.536 34.4456 731.285 34.4279 731.034C34.397 730.561 34.386 730.086 34.3736 729.601L29.0264 737.497C27.9184 734.641 26.9529 732.119 26.1821 730.003C25.1294 727.108 24.1216 724.105 23.1583 721.125L32.5223 708.61C32.2963 708.198 32.0518 707.798 31.7873 707.402L22.689 719.583C21.3249 715.243 20.0758 710.988 19.0218 707.21L24.6574 699.666C24.3266 699.371 23.9973 699.086 23.6581 698.803L18.5635 705.605C16.6542 698.619 15.4563 693.625 15.4282 693.507L13.5086 693.982C13.5367 694.099 14.7627 699.211 16.7375 706.36L9.7168 704.25L9.71831 704.26C9.73622 704.714 9.74414 705.169 9.74208 705.626L17.1478 707.85C18.2163 711.656 19.46 715.943 20.8385 720.311L9.36493 716.858C9.38585 717.331 9.42674 717.802 9.47611 718.262L21.3347 721.829C22.2866 724.8 23.2914 727.783 24.3426 730.668Z" fill="#02987B"/>
<path d="M214.376 709.051C226.13 705.243 238.477 702.845 250.466 703.481C258.588 703.918 266.436 705.736 273.498 708.842C263.556 707.909 257.767 714.465 250.519 719.362C243.271 724.259 236.507 729.826 228.762 734.011C221.038 738.19 211.939 740.926 203.688 739.382C196.387 737.998 190.675 733.501 185.272 729.154L183.208 726.793C181.619 724.995 182.512 722.133 184.995 721.002C194.606 716.573 204.311 712.315 214.376 709.051Z" fill="#FFC100"/>
<path d="M244.354 709.539C245.752 708.31 238.179 695.513 237.453 694.473C233.125 688.179 224.898 684.558 216.223 687.983C201.562 693.796 204.634 708.124 206.06 718.6C206.04 718.606 224.344 727.04 244.354 709.539Z" fill="#FFC100"/>
<path d="M205.403 713.995C209.204 715.16 225.637 718.907 242.269 703.088C243.815 706.153 244.967 709.005 244.334 709.545C224.324 727.046 206.04 718.606 206.04 718.606C205.844 717.123 205.609 715.586 205.403 713.995Z" fill="#D99800"/>
<g clip-path="url(#clip1_6_134)">
<path d="M258.239 432.756C240.177 432.756 225.477 418.057 225.477 399.995V361.319C225.477 358.057 228.121 355.414 231.382 355.414C234.644 355.414 237.288 358.057 237.288 361.319V399.995C237.288 411.542 246.682 420.946 258.239 420.946C269.795 420.946 279.189 411.551 279.189 399.995C279.189 388.584 270.013 379.272 258.647 379.053L258.638 379.78C258.584 383.042 255.885 385.668 252.642 385.586C249.38 385.531 246.782 382.851 246.837 379.59L246.936 373.593C246.982 370.822 248.944 368.46 251.661 367.906C253.823 367.461 256.04 367.243 258.257 367.243C276.318 367.243 291.018 381.943 291.018 400.004C291 418.057 276.3 432.756 258.239 432.756Z" fill="white"/>
<path d="M267.306 399.822C269.523 399.822 271.321 398.025 271.321 395.807C271.321 393.589 269.523 391.791 267.306 391.791C265.088 391.791 263.29 393.589 263.29 395.807C263.29 398.025 265.088 399.822 267.306 399.822Z" fill="white"/>
<path d="M248.826 399.822C251.044 399.822 252.842 398.025 252.842 395.807C252.842 393.589 251.044 391.791 248.826 391.791C246.608 391.791 244.811 393.589 244.811 395.807C244.811 398.025 246.608 399.822 248.826 399.822Z" fill="white"/>
<path d="M103.053 348.818H86.854H86V349.672V381.997V382.851H86.854H90.0884H90.9424V381.997V366.988H103.053H103.907V366.134V362.963V362.109H103.053H90.9424V353.687H103.053H103.907V352.833V349.672V348.818H103.053Z" fill="white"/>
<path d="M129.618 373.312L128.901 372.939L128.483 373.63C127.592 375.11 126.775 376.183 126.039 376.818C125.312 377.445 124.413 377.963 123.368 378.345C122.314 378.735 121.224 378.926 120.106 378.926C117.808 378.926 115.927 378.136 114.364 376.519C112.974 375.074 112.193 373.312 111.993 371.14H132.607H133.471L133.461 370.277C133.434 366.834 132.48 363.899 130.636 361.573C128.047 358.285 124.531 356.613 120.197 356.613C115.981 356.613 112.565 358.248 110.04 361.464C108.068 363.981 107.069 366.888 107.069 370.104C107.069 373.521 108.25 376.628 110.576 379.335C112.938 382.079 116.236 383.469 120.379 383.469C122.232 383.469 123.931 383.178 125.412 382.606C126.902 382.033 128.256 381.189 129.446 380.098C130.627 379.008 131.681 377.563 132.58 375.81L132.962 375.056L132.217 374.665L129.618 373.312ZM126.757 364.226C127.283 364.89 127.729 365.744 128.074 366.77H112.574C113.129 365.28 113.865 364.117 114.755 363.318C116.299 361.937 118.089 361.274 120.233 361.274C121.523 361.274 122.768 361.546 123.94 362.091C125.112 362.636 126.057 363.354 126.757 364.226Z" fill="white"/>
<path d="M137.877 348H137.023V348.854V381.997V382.851H137.877H140.957H141.811V381.997V348.854V348H140.957H137.877Z" fill="white"/>
<path d="M149.969 348H146.889H146.035V348.854V381.997V382.851H146.889H149.969H150.823V381.997V348.854V348H149.969Z" fill="white"/>
<path d="M167.677 356.613C163.743 356.613 160.436 358.057 157.864 360.919C155.53 363.499 154.339 366.598 154.339 370.104C154.339 373.657 155.593 376.8 158.055 379.444C160.536 382.115 163.779 383.46 167.677 383.46C171.565 383.46 174.79 382.106 177.28 379.435C179.751 376.782 180.996 373.639 180.996 370.095C180.996 366.57 179.814 363.463 177.47 360.883C174.89 358.057 171.601 356.613 167.677 356.613ZM176.162 370.177C176.162 371.749 175.772 373.239 175.017 374.593C174.263 375.946 173.228 377 171.947 377.727C170.657 378.463 169.221 378.835 167.677 378.835C166.132 378.835 164.688 378.463 163.406 377.727C162.125 376.991 161.09 375.937 160.336 374.593C159.573 373.239 159.191 371.749 159.191 370.177C159.191 367.706 160.018 365.653 161.708 363.917C163.397 362.182 165.351 361.337 167.686 361.337C170.011 361.337 171.965 362.182 173.655 363.917C175.345 365.653 176.162 367.706 176.162 370.177Z" fill="white"/>
<path d="M219.635 357.231H216.437H215.874L215.656 357.749L208.96 373.312L202.073 357.739L201.846 357.231H201.283H200.729H200.175L199.947 357.739L193.115 373.284L186.556 357.758L186.338 357.231H185.765H182.604H181.304L181.813 358.421L192.034 382.333L192.252 382.851H192.816H193.388H193.942L194.169 382.351L201.038 366.979L207.897 382.351L208.124 382.851H208.678H209.251H209.814L210.032 382.342L220.426 358.43L220.944 357.231H219.635Z" fill="white"/>
<path d="M181.831 416.93V389.901V389.111H181.041H180.232H179.824L179.578 389.438L157.328 421.073L156.447 422.327H157.973H176.271V430.812V431.603H177.062H181.023H181.813V430.812V422.317H185.847H186.638V421.527V417.729V416.939H185.847H181.831V416.93ZM166.786 416.93L176.28 403.466V416.93H166.786Z" fill="white"/>
<path d="M218.763 390.11H214.775H213.984V390.901V414.986C213.984 418.802 213.775 420.373 213.603 421.018C213.257 422.318 212.703 423.426 211.967 424.325C211.231 425.225 210.305 425.933 209.214 426.442C208.115 426.951 206.952 427.205 205.753 427.205C204.354 427.205 202.946 426.869 201.565 426.215C200.202 425.561 199.184 424.761 198.539 423.826C197.894 422.881 197.467 421.663 197.285 420.228C197.213 419.755 197.131 418.474 197.131 414.986V390.901V390.11H196.341H192.352H191.562V390.901V414.986C191.562 419.156 191.816 421.981 192.334 423.635C193.161 426.333 194.823 428.523 197.258 430.158C199.675 431.775 202.609 432.602 205.971 432.602C209.105 432.602 211.813 431.721 214.039 429.995C216.246 428.277 217.745 426.215 218.481 423.871C219.199 421.609 219.563 418.62 219.563 414.995V390.901V390.11H218.763Z" fill="white"/>
</g>
<rect x="30" y="58" width="56" height="56" rx="14" fill="white"/>
<path d="M58.1049 105C49.2262 105 42 97.7776 42 88.9037V69.9014C42 68.299 43.2996 67 44.903 67C46.5063 67 47.806 68.299 47.806 69.9014V88.9037C47.806 94.5771 52.424 99.1971 58.1049 99.1971C63.7858 99.1971 68.4038 94.5816 68.4038 88.9037C68.4038 83.2972 63.893 78.7218 58.3059 78.6147L58.3014 78.9718C58.2746 80.5743 56.9482 81.8643 55.3538 81.8242C53.7504 81.7974 52.4731 80.4806 52.4999 78.8781L52.549 75.932C52.5714 74.5705 53.5361 73.41 54.8714 73.1377C55.9344 72.9189 57.0241 72.8118 58.1138 72.8118C66.9925 72.8118 74.2188 80.0342 74.2188 88.9081C74.2054 97.7776 66.9836 105 58.1049 105Z" fill="#00CEA6"/>
<path d="M62.5621 88.8189C63.6523 88.8189 64.5361 87.9355 64.5361 86.8459C64.5361 85.7562 63.6523 84.8729 62.5621 84.8729C61.4719 84.8729 60.5881 85.7562 60.5881 86.8459C60.5881 87.9355 61.4719 88.8189 62.5621 88.8189Z" fill="#00CEA6"/>
<path d="M53.478 88.8189C54.5682 88.8189 55.452 87.9355 55.452 86.8459C55.452 85.7562 54.5682 84.8729 53.478 84.8729C52.3877 84.8729 51.5039 85.7562 51.5039 86.8459C51.5039 87.9355 52.3877 88.8189 53.478 88.8189Z" fill="#00CEA6"/>
</g>
<defs>
<clipPath id="clip0_6_134">
<rect width="375" height="812" fill="white"/>
</clipPath>
<clipPath id="clip1_6_134">
<rect width="205" height="84.7565" fill="white" transform="translate(86 348)"/>
</clipPath>
</defs>
</svg>
