<svg width="196" height="212" viewBox="0 0 196 212" fill="none" xmlns="http://www.w3.org/2000/svg">
<g filter="url(#filter0_d_24_88)">
<path fill-rule="evenodd" clip-rule="evenodd" d="M30 84.3452C30 78.7408 32.3515 73.3935 36.4818 69.6054L89.8261 20.6822C95.2667 15.6925 103.647 15.7847 108.976 20.893L159.839 69.6451C163.775 73.4172 166 78.6324 166 84.0837V153.55C166 161.834 159.284 168.55 151 168.55H45C36.7157 168.55 30 161.834 30 153.55V84.3452Z" fill="#00CEA6"/>
</g>
<g filter="url(#filter1_d_24_88)">
<rect x="44" y="45" width="108" height="83" rx="2" fill="white"/>
</g>
<mask id="mask0_24_88" style="mask-type:luminance" maskUnits="userSpaceOnUse" x="30" y="17" width="136" height="152">
<path fill-rule="evenodd" clip-rule="evenodd" d="M30 84.3452C30 78.7408 32.3515 73.3935 36.4818 69.6054L89.8261 20.6822C95.2667 15.6925 103.647 15.7847 108.976 20.893L159.839 69.6451C163.775 73.4172 166 78.6324 166 84.0837V153.55C166 161.834 159.284 168.55 151 168.55H45C36.7157 168.55 30 161.834 30 153.55V84.3452Z" fill="white"/>
</mask>
<g mask="url(#mask0_24_88)">
<g filter="url(#filter2_d_24_88)">
<path fill-rule="evenodd" clip-rule="evenodd" d="M30 75.5501L92.1538 120.337C95.6453 122.853 100.355 122.853 103.846 120.337L166 75.5501V158.55C166 164.073 161.523 168.55 156 168.55H40C34.4772 168.55 30 164.073 30 158.55V75.5501Z" fill="#FDFEFF"/>
</g>
<g filter="url(#filter3_d_24_88)">
<path fill-rule="evenodd" clip-rule="evenodd" d="M92.1538 123.763C95.6453 121.247 100.355 121.247 103.846 123.763L166 168.55H30L92.1538 123.763Z" fill="white"/>
</g>
</g>
<defs>
<filter id="filter0_d_24_88" x="0" y="0" width="196" height="211.55" filterUnits="userSpaceOnUse" color-interpolation-filters="sRGB">
<feFlood flood-opacity="0" result="BackgroundImageFix"/>
<feColorMatrix in="SourceAlpha" type="matrix" values="0 0 0 0 0 0 0 0 0 0 0 0 0 0 0 0 0 0 127 0" result="hardAlpha"/>
<feOffset dy="13"/>
<feGaussianBlur stdDeviation="15"/>
<feColorMatrix type="matrix" values="0 0 0 0 0 0 0 0 0 0 0 0 0 0 0 0 0 0 0.1 0"/>
<feBlend mode="normal" in2="BackgroundImageFix" result="effect1_dropShadow_24_88"/>
<feBlend mode="normal" in="SourceGraphic" in2="effect1_dropShadow_24_88" result="shape"/>
</filter>
<filter id="filter1_d_24_88" x="33" y="35" width="130" height="105" filterUnits="userSpaceOnUse" color-interpolation-filters="sRGB">
<feFlood flood-opacity="0" result="BackgroundImageFix"/>
<feColorMatrix in="SourceAlpha" type="matrix" values="0 0 0 0 0 0 0 0 0 0 0 0 0 0 0 0 0 0 127 0" result="hardAlpha"/>
<feOffset dy="1"/>
<feGaussianBlur stdDeviation="5.5"/>
<feColorMatrix type="matrix" values="0 0 0 0 0 0 0 0 0 0 0 0 0 0 0 0 0 0 0.1 0"/>
<feBlend mode="normal" in2="BackgroundImageFix" result="effect1_dropShadow_24_88"/>
<feBlend mode="normal" in="SourceGraphic" in2="effect1_dropShadow_24_88" result="shape"/>
</filter>
<filter id="filter2_d_24_88" x="13" y="55.5501" width="170" height="127" filterUnits="userSpaceOnUse" color-interpolation-filters="sRGB">
<feFlood flood-opacity="0" result="BackgroundImageFix"/>
<feColorMatrix in="SourceAlpha" type="matrix" values="0 0 0 0 0 0 0 0 0 0 0 0 0 0 0 0 0 0 127 0" result="hardAlpha"/>
<feOffset dy="-3"/>
<feGaussianBlur stdDeviation="8.5"/>
<feColorMatrix type="matrix" values="0 0 0 0 0.108708 0 0 0 0 0.237823 0 0 0 0 0.391768 0 0 0 0.0690104 0"/>
<feBlend mode="normal" in2="BackgroundImageFix" result="effect1_dropShadow_24_88"/>
<feBlend mode="normal" in="SourceGraphic" in2="effect1_dropShadow_24_88" result="shape"/>
</filter>
<filter id="filter3_d_24_88" x="23" y="111.876" width="150" height="60.6742" filterUnits="userSpaceOnUse" color-interpolation-filters="sRGB">
<feFlood flood-opacity="0" result="BackgroundImageFix"/>
<feColorMatrix in="SourceAlpha" type="matrix" values="0 0 0 0 0 0 0 0 0 0 0 0 0 0 0 0 0 0 127 0" result="hardAlpha"/>
<feOffset dy="-3"/>
<feGaussianBlur stdDeviation="3.5"/>
<feColorMatrix type="matrix" values="0 0 0 0 0.252325 0 0 0 0 0.423517 0 0 0 0 0.627631 0 0 0 0.02607 0"/>
<feBlend mode="normal" in2="BackgroundImageFix" result="effect1_dropShadow_24_88"/>
<feBlend mode="normal" in="SourceGraphic" in2="effect1_dropShadow_24_88" result="shape"/>
</filter>
</defs>
</svg>
